<svg width="32" height="32" viewBox="0 0 32 32" fill="none" xmlns="http://www.w3.org/2000/svg">
<rect width="32" height="32" fill="white"/>
<path d="M21.3254 10.8245C20.0295 13.8124 18.2728 16.905 16.009 19.3206C15.8963 19.205 15.7337 19.1021 15.512 19.096C15.2113 19.0876 14.9821 19.2676 14.8351 19.42C14.8163 19.4395 14.7975 19.46 14.7788 19.4814C14.795 19.418 14.8103 19.3555 14.8245 19.2945C14.8714 19.0922 14.9181 18.8898 14.9649 18.6875C15.4657 16.5192 15.9667 14.35 16.7302 12.3072C17.0903 11.3437 17.6367 10.0048 18.3614 8.83908C19.1 7.65085 19.9551 6.75604 20.888 6.50727C20.9607 6.48788 21.0879 6.50141 21.3145 6.6396C21.4718 6.73555 21.6076 6.84487 21.7557 6.96403C21.8274 7.02169 21.9019 7.08167 21.9831 7.14353C22.1412 7.26395 22.2353 7.4416 22.2652 7.71027C22.2964 7.99051 22.2522 8.3385 22.1497 8.7289C21.9837 9.36101 21.6982 9.99394 21.4755 10.4877C21.4208 10.609 21.3698 10.7221 21.3254 10.8245Z" fill="black"/>
<path d="M16.4736 23.2813C16.4743 23.2864 16.4748 23.2885 16.4748 23.2882C16.4749 23.2881 16.4748 23.2873 16.4745 23.2859C16.4743 23.2847 16.474 23.2832 16.4736 23.2813Z" fill="black"/>
<path fill-rule="evenodd" clip-rule="evenodd" d="M0.871948 4.36808C0 6.07937 0 8.31958 0 12.8V19.2C0 23.6804 0 25.9206 0.871948 27.6319C1.63893 29.1372 2.86278 30.3611 4.36808 31.1281C6.07937 32 8.31958 32 12.8 32H19.2C23.6804 32 25.9206 32 27.6319 31.1281C29.1372 30.3611 30.3611 29.1372 31.1281 27.6319C32 25.9206 32 23.6804 32 19.2V12.8C32 8.31958 32 6.07937 31.1281 4.36808C30.3611 2.86278 29.1372 1.63893 27.6319 0.871948C25.9206 0 23.6804 0 19.2 0H12.8C8.31958 0 6.07937 0 4.36808 0.871948C2.86278 1.63893 1.63893 2.86278 0.871948 4.36808ZM22.4397 6.22973C22.2733 6.09614 22.0508 5.9174 21.8352 5.78588C21.5383 5.60479 21.1072 5.41386 20.6303 5.54104C19.3069 5.89395 18.2764 7.08157 17.5121 8.31113C16.7337 9.56325 16.1596 10.9774 15.7935 11.9571C15.0058 14.0646 14.4903 16.2975 13.9924 18.4543C13.9449 18.6597 13.8977 18.8645 13.8504 19.0683C13.7908 19.325 13.7182 19.5779 13.6405 19.8485C13.5906 20.0226 13.5385 20.204 13.4864 20.3985C13.3757 20.8121 13.2738 21.2574 13.2406 21.7024C11.0094 23.1303 8.65064 23.2816 5.96389 22.498C5.01113 22.2201 4.41541 21.9143 4.04895 21.5098C3.69851 21.1229 3.5 20.5796 3.5 19.6834C3.5 18.293 3.53355 17.0422 3.89912 15.7627C4.84447 12.454 6.70571 9.19478 8.85173 6.4807C9.02301 6.26409 8.98625 5.94965 8.76964 5.77837C8.55303 5.6071 8.23859 5.64385 8.06732 5.86046C5.86174 8.64987 3.92727 12.0242 2.93759 15.488C2.53004 16.9144 2.5 18.2896 2.5 19.6834C2.5 20.7305 2.73536 21.5492 3.30782 22.1811C3.86427 22.7954 4.6805 23.1653 5.68389 23.458C8.57513 24.3012 11.222 24.1556 13.7162 22.585C13.8806 22.6031 14.0183 22.5344 14.0745 22.4985C14.1617 22.4427 14.2226 22.3712 14.2544 22.3316C14.3008 22.274 14.3505 22.199 14.4016 22.1144C14.436 22.0889 14.4703 22.063 14.5046 22.0369C14.839 21.7819 15.1646 21.5129 15.4813 21.2315C15.5051 21.7256 15.497 22.2169 15.4923 22.5046C15.491 22.5861 15.4899 22.6513 15.4899 22.6956L15.4899 22.6895C15.4898 22.6895 15.4897 22.6917 15.4894 22.6971C15.489 22.7033 15.4883 22.7136 15.4872 22.7295L15.4862 22.7445C15.4841 22.7752 15.4815 22.8144 15.4789 22.8573C15.473 22.9563 15.4667 23.0879 15.4687 23.2103C15.4697 23.2711 15.4729 23.3394 15.4813 23.4054C15.4878 23.4565 15.5038 23.5654 15.5596 23.6706C15.5886 23.7252 15.6535 23.8274 15.7807 23.8969C15.9303 23.9788 16.0918 23.9758 16.2203 23.9279C16.3289 23.8874 16.4008 23.8211 16.4379 23.7824C16.4792 23.7394 16.5114 23.6944 16.5357 23.6567C16.6839 23.4267 16.8295 23.1983 16.974 22.9716C17.4968 22.1512 18.006 21.3522 18.5782 20.5764L18.5812 20.5723C18.6536 20.4741 19.311 19.5821 20.0045 18.8119C20.3618 18.415 20.7023 18.0805 20.9631 17.897L20.9809 17.8846C21.0085 18.0509 21.0013 18.2597 20.9754 18.5391C20.9718 18.5777 20.9678 18.6182 20.9635 18.6604C20.9276 19.0194 20.8795 19.4999 21.0134 19.9351C21.5757 21.7625 22.9045 23.0235 24.4343 23.907C25.9608 24.7886 27.7266 25.3179 29.2427 25.6717C29.5116 25.7345 29.7805 25.5673 29.8432 25.2984C29.906 25.0295 29.7389 24.7606 29.4699 24.6979C27.9887 24.3522 26.3347 23.8497 24.9344 23.041C23.5374 22.2342 22.4324 21.1466 21.9692 19.641C21.898 19.4097 21.9235 19.1379 21.9618 18.7315L21.9712 18.6313C22.0083 18.2301 22.0526 17.6737 21.7851 17.1768C21.7135 17.0439 21.6014 16.9231 21.4425 16.8512C21.2884 16.7814 21.1344 16.7775 21.0088 16.7966C20.7761 16.832 20.5587 16.9588 20.3876 17.0791C20.0293 17.3313 19.6263 17.7374 19.2613 18.1428C18.5343 18.9503 17.8534 19.8743 17.7769 19.978L17.7734 19.9828C17.3202 20.5973 16.9028 21.2294 16.4972 21.8605C16.4947 21.4876 16.4818 21.0468 16.4411 20.6494C16.4309 20.5497 16.4188 20.4502 16.4042 20.3529C18.9467 17.766 20.8653 14.3984 22.2428 11.2224C22.2785 11.1401 22.3226 11.0427 22.3721 10.9331C22.5942 10.442 22.9269 9.70645 23.1169 8.98287C23.2339 8.53703 23.3096 8.05358 23.2591 7.59963C23.2072 7.13412 23.018 6.67486 22.5892 6.3481C22.5477 6.31655 22.497 6.27582 22.4397 6.22973Z" fill="black"/>
</svg>
