<svg width="32" height="32" viewBox="0 0 32 32" fill="none" xmlns="http://www.w3.org/2000/svg">
<rect width="32" height="32" fill="white"/>
<path d="M8.45952 6.17058C6.28373 8.92232 4.38587 12.2391 3.41835 15.6254C3.0318 16.9783 3 18.2913 3 19.6834C3 21.6267 3.86774 22.4074 5.82389 22.978C8.89887 23.8748 11.6264 23.6024 14.2014 21.6392C17.6115 19.0395 20.0964 14.9147 21.7841 11.0235C22.2053 10.0524 23.46 7.64017 22.2861 6.74582C21.8756 6.43306 21.3088 5.87759 20.7591 6.02416C18.5029 6.62583 16.988 10.189 16.2618 12.1321C15.4131 14.403 14.8845 16.8246 14.3374 19.1814C14.1387 20.0374 13.757 21.0095 13.7308 21.9007C13.7054 22.7629 14.5963 20.388 15.195 19.7671C16.1317 18.7957 15.9899 22.2509 15.9899 22.6956C15.9899 22.7783 15.8914 23.7334 16.1154 23.3859C16.7912 22.3372 17.4331 21.2867 18.1758 20.2796C18.286 20.1301 20.8949 16.5782 21.3448 17.4139C21.7187 18.1081 21.2647 19.0518 21.4913 19.788C22.5168 23.1211 26.3589 24.4854 29.3563 25.1848" stroke="black" stroke-linecap="round" stroke-linejoin="round"/>
</svg>
